<svg xmlns="http://www.w3.org/2000/svg" id="canvas" viewBox="323.847 263.620 566.933 151.543"><path id="path" d="M 345.74,352.27 m 0.00 0.00 m 77.68 -74.14 c -0.71 0.82, -1.63 1.75, -3.53 4.12 c -1.91 2.37, -3.11 3.94, -6.01 7.71 c -2.90 3.77, -4.82 6.20, -8.49 11.13 c -3.67 4.93, -5.68 7.75, -9.87 13.50 c -4.18 5.75, -6.54 8.97, -11.05 15.26 c -4.51 6.29, -6.96 9.70, -11.49 16.18 c -4.53 6.48, -6.91 9.95, -11.18 16.23 c -4.27 6.28, -6.38 9.55, -10.18 15.19 c -3.80 5.63, -5.66 8.34, -8.84 12.99 c -3.18 4.65, -4.65 6.76, -7.04 10.26 c -2.39 3.50, -3.38 5.09, -4.93 7.23 c -1.55 2.14, -2.06 2.63, -2.84 3.47 c -0.77 0.85, -0.83 0.76, -1.03 0.76 c -0.21 0.00, -0.00 -0.61, -0.00 -0.76 m 113.12 -144.78 c -0.16 0.65, -0.39 1.42, -0.80 3.26 c -0.42 1.85, -0.61 3.11, -1.28 5.98 c -0.67 2.86, -1.17 4.62, -2.08 8.34 c -0.91 3.72, -1.30 5.86, -2.48 10.27 c -1.18 4.41, -1.91 6.78, -3.42 11.78 c -1.52 4.99, -2.42 7.71, -4.15 13.19 c -1.74 5.48, -2.67 8.48, -4.54 14.20 c -1.87 5.72, -2.80 8.86, -4.80 14.41 c -2.00 5.55, -3.19 8.25, -5.22 13.36 c -2.03 5.12, -3.05 7.70, -4.92 12.22 c -1.87 4.51, -2.85 6.59, -4.44 10.35 c -1.59 3.76, -2.36 5.47, -3.51 8.43 c -1.15 2.96, -1.53 4.46, -2.23 6.36 c -0.71 1.90, -0.90 2.39, -1.30 3.14 c -0.40 0.74, -0.51 0.61, -0.70 0.59 c -0.20 -0.02, -0.23 -0.56, -0.28 -0.70 m -31.27 -45.83 c 0.45 -0.18, 0.83 -0.46, 2.24 -0.89 c 1.42 -0.44, 2.30 -0.79, 4.84 -1.29 c 2.54 -0.50, 4.23 -0.80, 7.85 -1.22 c 3.63 -0.42, 5.91 -0.58, 10.28 -0.88 c 4.38 -0.29, 6.87 -0.44, 11.60 -0.59 c 4.73 -0.15, 7.37 -0.16, 12.06 -0.16 c 4.69 0.00, 7.03 0.11, 11.40 0.18 c 4.37 0.06, 6.76 0.09, 10.43 0.13 c 3.67 0.05, 5.36 0.11, 7.91 0.09 c 2.55 -0.01, 3.87 -0.12, 4.84 -0.15 m 74.04 -53.63 c -0.30 0.62, -0.51 1.15, -1.48 3.10 c -0.97 1.94, -1.56 3.28, -3.38 6.62 c -1.82 3.33, -3.07 5.54, -5.71 10.05 c -2.64 4.51, -4.32 7.36, -7.47 12.51 c -3.15 5.15, -5.06 8.01, -8.29 13.26 c -3.23 5.25, -4.99 7.99, -7.87 12.99 c -2.88 4.99, -4.22 7.62, -6.51 11.98 c -2.29 4.36, -3.45 6.73, -4.93 9.82 c -1.48 3.09, -2.05 4.38, -2.47 5.61 c -0.42 1.22, -0.42 1.27, 0.38 0.51 c 0.80 -0.76, 1.57 -1.89, 3.60 -4.30 c 2.03 -2.40, 3.43 -4.46, 6.54 -7.73 c 3.11 -3.27, 5.15 -5.36, 9.03 -8.62 c 3.89 -3.26, 6.04 -4.91, 10.40 -7.68 c 4.35 -2.77, 6.85 -4.08, 11.37 -6.15 c 4.52 -2.07, 6.95 -3.07, 11.24 -4.21 c 4.30 -1.14, 6.53 -1.41, 10.24 -1.50 c 3.71 -0.09, 5.50 0.13, 8.31 1.06 c 2.81 0.93, 4.03 1.72, 5.74 3.59 c 1.71 1.87, 2.32 3.14, 2.82 5.75 c 0.50 2.61, 0.48 4.23, -0.32 7.32 c -0.80 3.09, -1.56 4.83, -3.67 8.14 c -2.11 3.31, -3.64 5.18, -6.88 8.41 c -3.24 3.23, -5.28 4.95, -9.30 7.73 c -4.02 2.78, -6.43 4.10, -10.82 6.17 c -4.38 2.07, -6.81 2.92, -11.10 4.20 c -4.29 1.28, -6.46 1.68, -10.34 2.20 c -3.87 0.52, -5.72 0.52, -9.04 0.40 c -3.32 -0.11, -4.99 -0.30, -7.54 -0.96 c -2.56 -0.67, -3.60 -1.36, -5.24 -2.38 c -1.64 -1.02, -2.15 -1.73, -2.97 -2.72 c -0.82 -0.99, -0.90 -1.79, -1.13 -2.23 m 178.70 -35.35 c -0.16 -0.56, -0.24 -1.53, -0.82 -2.79 c -0.58 -1.25, -0.91 -2.15, -2.09 -3.49 c -1.18 -1.33, -1.90 -2.29, -3.82 -3.17 c -1.92 -0.88, -3.05 -1.12, -5.79 -1.23 c -2.74 -0.11, -4.40 -0.08, -7.91 0.67 c -3.51 0.75, -5.55 1.34, -9.64 3.09 c -4.10 1.75, -6.46 3.00, -10.84 5.64 c -4.37 2.64, -6.91 4.31, -11.02 7.54 c -4.11 3.23, -6.33 5.15, -9.52 8.62 c -3.19 3.46, -4.66 5.42, -6.45 8.70 c -1.79 3.28, -2.32 4.92, -2.49 7.71 c -0.16 2.79, 0.20 4.11, 1.67 6.22 c 1.47 2.11, 2.74 3.10, 5.69 4.32 c 2.95 1.23, 4.89 1.58, 9.06 1.81 c 4.18 0.23, 6.70 0.06, 11.82 -0.68 c 5.11 -0.74, 8.27 -1.36, 13.75 -3.03 c 5.48 -1.67, 8.59 -2.93, 13.64 -5.32 c 5.05 -2.40, 7.64 -3.92, 11.61 -6.67 c 3.97 -2.74, 5.75 -4.29, 8.24 -7.05 c 2.50 -2.76, 3.26 -4.26, 4.24 -6.75 c 0.97 -2.49, 0.81 -3.73, 0.64 -5.69 c -0.17 -1.96, -0.76 -2.79, -1.49 -4.10 c -0.73 -1.31, -1.72 -1.97, -2.15 -2.46 m 54.51 -9.76 c -0.61 0.59, -1.42 1.18, -3.06 2.96 c -1.64 1.79, -2.88 3.04, -5.15 5.97 c -2.26 2.92, -3.89 4.99, -6.17 8.65 c -2.28 3.66, -3.55 5.91, -5.25 9.63 c -1.70 3.72, -2.46 5.75, -3.25 8.98 c -0.79 3.22, -1.04 4.64, -0.71 7.13 c 0.33 2.49, 0.90 3.66, 2.37 5.32 c 1.48 1.66, 2.50 2.27, 5.01 2.99 c 2.51 0.72, 4.09 0.86, 7.56 0.59 c 3.47 -0.27, 5.55 -0.66, 9.80 -1.95 c 4.24 -1.29, 6.70 -2.26, 11.42 -4.49 c 4.71 -2.24, 7.31 -3.73, 12.16 -6.69 c 4.85 -2.96, 7.51 -4.68, 12.09 -8.09 c 4.57 -3.41, 6.96 -5.44, 10.79 -8.97 c 3.83 -3.54, 5.76 -5.82, 8.34 -8.72 c 2.58 -2.91, 3.59 -4.47, 4.55 -5.81 c 0.96 -1.34, 0.88 -1.61, 0.26 -0.87 c -0.62 0.74, -1.60 1.88, -3.38 4.55 c -1.78 2.67, -3.32 4.91, -5.52 8.79 c -2.20 3.89, -3.64 6.61, -5.47 10.64 c -1.83 4.03, -2.70 6.05, -3.70 9.51 c -1.01 3.46, -1.39 5.12, -1.32 7.80 c 0.07 2.67, 0.26 3.98, 1.66 5.57 c 1.39 1.59, 3.00 1.89, 5.31 2.39 c 2.31 0.50, 3.94 0.28, 6.25 0.10 c 2.32 -0.18, 4.26 -0.80, 5.32 -1.00 m 104.98 -95.91 c -0.37 0.64, -0.68 1.13, -1.87 3.22 c -1.19 2.09, -1.93 3.56, -4.07 7.24 c -2.14 3.67, -3.62 6.20, -6.63 11.13 c -3.01 4.93, -4.92 8.08, -8.43 13.53 c -3.50 5.45, -5.59 8.42, -9.09 13.72 c -3.50 5.30, -5.34 8.08, -8.40 12.78 c -3.06 4.70, -4.52 6.96, -6.91 10.74 c -2.39 3.78, -3.41 5.52, -5.04 8.16 c -1.63 2.63, -2.19 3.54, -3.11 5.01 c -0.92 1.47, -1.19 1.89, -1.49 2.36 m 6.58 -44.91 c 0.93 -0.09, 2.07 -0.23, 4.65 -0.44 c 2.58 -0.22, 4.42 -0.40, 8.27 -0.65 c 3.85 -0.25, 6.49 -0.39, 10.97 -0.61 c 4.48 -0.22, 7.01 -0.37, 11.44 -0.48 c 4.42 -0.11, 6.95 -0.07, 10.68 -0.08 c 3.73 -0.01, 5.47 -0.01, 7.96 0.02 c 2.49 0.03, 3.60 0.09, 4.50 0.11" style="stroke: rgb(0, 0, 0); stroke-width: 4.11; fill: none; stroke-linecap: round;"/></svg>