<svg xmlns="http://www.w3.org/2000/svg" id="canvas" viewBox="157.470 244.487 800.300 261.419"><path id="path" d="M 160.47,352.27 m 0.00 0.00 m 52.60 -86.83 c -0.10 1.18, -0.08 2.67, -0.48 5.89 c -0.40 3.22, -0.65 5.37, -1.53 10.22 c -0.88 4.85, -1.51 8.08, -2.87 14.03 c -1.35 5.96, -2.26 9.26, -3.90 15.76 c -1.63 6.50, -2.61 10.07, -4.28 16.75 c -1.66 6.68, -2.51 10.16, -4.03 16.64 c -1.52 6.47, -2.22 9.73, -3.59 15.72 c -1.37 5.99, -2.00 8.89, -3.25 14.24 c -1.25 5.35, -1.87 7.87, -3.00 12.50 c -1.13 4.63, -1.68 6.77, -2.64 10.65 c -0.97 3.89, -1.45 5.74, -2.19 8.78 c -0.74 3.04, -1.10 4.56, -1.51 6.40 c -0.41 1.85, -0.49 2.21, -0.56 2.84 c -0.07 0.62, 0.06 0.46, 0.19 0.29 c 0.14 -0.18, 0.40 -0.93, 0.50 -1.16 m -5.63 -144.86 c 0.39 -0.61, 0.58 -1.54, 1.97 -3.04 c 1.39 -1.50, 2.17 -2.53, 4.98 -4.47 c 2.80 -1.94, 4.57 -3.29, 9.04 -5.23 c 4.47 -1.93, 7.36 -2.83, 13.31 -4.44 c 5.95 -1.62, 9.53 -2.56, 16.42 -3.63 c 6.90 -1.07, 10.97 -1.50, 18.06 -1.73 c 7.09 -0.22, 11.00 -0.12, 17.40 0.62 c 6.40 0.73, 9.62 1.41, 14.61 3.06 c 4.99 1.64, 7.20 2.74, 10.33 5.16 c 3.13 2.42, 4.26 3.89, 5.34 6.96 c 1.08 3.07, 1.09 4.78, 0.04 8.38 c -1.04 3.60, -2.21 5.60, -5.25 9.62 c -3.04 4.02, -5.27 6.27, -9.95 10.48 c -4.68 4.21, -7.68 6.53, -13.46 10.57 c -5.78 4.05, -9.23 6.14, -15.46 9.67 c -6.22 3.53, -9.62 5.24, -15.67 7.97 c -6.05 2.73, -9.16 3.85, -14.58 5.67 c -5.42 1.82, -8.05 2.45, -12.53 3.42 c -4.48 0.98, -6.71 1.15, -9.87 1.46 c -3.16 0.31, -4.24 0.18, -5.93 0.08 c -1.69 -0.10, -1.98 -0.33, -2.53 -0.56 c -0.54 -0.23, -0.15 -0.45, -0.18 -0.57 m 125.71 43.23 c -0.38 0.83, -0.85 1.83, -1.91 4.16 c -1.06 2.34, -1.76 4.07, -3.41 7.53 c -1.64 3.46, -2.81 5.80, -4.80 9.79 c -1.98 3.99, -3.18 6.26, -5.12 10.15 c -1.93 3.90, -2.98 6.06, -4.55 9.33 c -1.57 3.27, -2.28 4.91, -3.29 7.01 c -1.02 2.10, -1.43 2.85, -1.79 3.47 c -0.36 0.63, -0.33 0.71, 0.01 -0.33 c 0.34 -1.05, 0.63 -2.22, 1.69 -4.89 c 1.06 -2.67, 1.78 -4.63, 3.60 -8.47 c 1.82 -3.84, 2.94 -6.31, 5.50 -10.71 c 2.56 -4.41, 4.11 -6.92, 7.30 -11.33 c 3.19 -4.41, 5.04 -6.76, 8.64 -10.70 c 3.59 -3.94, 5.59 -5.82, 9.32 -8.99 c 3.73 -3.17, 5.69 -4.61, 9.33 -6.85 c 3.65 -2.23, 5.50 -3.08, 8.89 -4.33 c 3.40 -1.25, 5.04 -1.60, 8.10 -1.92 c 3.06 -0.32, 4.50 -0.18, 7.20 0.30 c 2.69 0.48, 3.91 0.95, 6.27 2.10 c 2.37 1.15, 3.63 2.21, 5.57 3.66 c 1.94 1.45, 2.81 2.35, 4.14 3.60 c 1.33 1.25, 2.02 2.11, 2.52 2.64 m 65.94 5.78 c -0.16 -0.54, -0.25 -1.45, -0.82 -2.68 c -0.57 -1.23, -0.91 -2.14, -2.03 -3.48 c -1.12 -1.34, -1.81 -2.30, -3.55 -3.22 c -1.74 -0.92, -2.77 -1.23, -5.13 -1.39 c -2.37 -0.16, -3.76 -0.12, -6.70 0.60 c -2.94 0.71, -4.63 1.29, -8.00 2.97 c -3.38 1.67, -5.35 2.82, -8.87 5.40 c -3.52 2.58, -5.52 4.26, -8.73 7.52 c -3.21 3.27, -4.94 5.23, -7.31 8.81 c -2.37 3.58, -3.42 5.64, -4.54 9.10 c -1.12 3.46, -1.37 5.25, -1.05 8.20 c 0.33 2.95, 0.88 4.39, 2.69 6.56 c 1.80 2.16, 3.15 3.11, 6.34 4.27 c 3.19 1.16, 5.29 1.49, 9.61 1.51 c 4.32 0.03, 6.93 -0.32, 11.97 -1.39 c 5.04 -1.07, 8.02 -1.97, 13.23 -3.95 c 5.21 -1.98, 8.10 -3.32, 12.82 -5.96 c 4.73 -2.64, 7.12 -4.23, 10.81 -7.22 c 3.69 -2.99, 5.34 -4.67, 7.65 -7.71 c 2.31 -3.05, 3.06 -4.69, 3.90 -7.53 c 0.84 -2.83, 0.71 -4.30, 0.30 -6.64 c -0.40 -2.35, -1.15 -3.44, -2.32 -5.09 c -1.17 -1.65, -2.21 -2.23, -3.54 -3.14 c -1.33 -0.91, -2.11 -1.05, -3.11 -1.40 c -0.99 -0.34, -1.49 -0.26, -1.86 -0.32 m 85.41 0.63 c -0.29 0.51, -0.68 1.05, -1.46 2.55 c -0.78 1.50, -1.27 2.42, -2.43 4.93 c -1.16 2.52, -1.91 4.14, -3.37 7.66 c -1.45 3.52, -2.19 5.58, -3.90 9.95 c -1.71 4.37, -2.68 6.86, -4.63 11.91 c -1.95 5.05, -2.97 7.84, -5.14 13.33 c -2.17 5.49, -3.28 8.47, -5.69 14.12 c -2.41 5.65, -3.66 8.57, -6.37 14.12 c -2.70 5.55, -4.16 8.41, -7.15 13.62 c -2.99 5.21, -4.61 7.80, -7.80 12.44 c -3.19 4.64, -4.93 6.90, -8.14 10.77 c -3.21 3.87, -4.92 5.66, -7.92 8.59 c -3.00 2.93, -4.50 4.17, -7.09 6.08 c -2.59 1.91, -3.80 2.56, -5.87 3.45 c -2.07 0.89, -3.05 1.36, -4.50 1.01 c -1.45 -0.35, -1.95 -1.36, -2.75 -2.76 c -0.80 -1.40, -0.95 -2.57, -1.25 -4.23 c -0.30 -1.65, -0.21 -3.23, -0.26 -4.03 m 92.62 -165.35 c 0.03 0.03, -0.33 -0.08, 0.15 0.13 c 0.48 0.22, 1.07 0.45, 2.23 0.94 c 1.16 0.49, 2.87 1.22, 3.59 1.52 m 46.41 61.99 c 0.93 -0.21, 2.17 -0.45, 4.65 -1.07 c 2.48 -0.62, 4.19 -1.00, 7.77 -2.03 c 3.58 -1.02, 6.03 -1.74, 10.12 -3.09 c 4.10 -1.35, 6.37 -2.14, 10.35 -3.65 c 3.98 -1.51, 6.09 -2.39, 9.55 -3.92 c 3.46 -1.53, 5.22 -2.26, 7.73 -3.74 c 2.51 -1.48, 3.57 -2.23, 4.82 -3.65 c 1.25 -1.42, 1.57 -2.11, 1.41 -3.43 c -0.16 -1.32, -0.63 -2.12, -2.22 -3.17 c -1.59 -1.05, -2.76 -1.63, -5.71 -2.06 c -2.96 -0.43, -4.93 -0.63, -9.07 -0.07 c -4.13 0.55, -6.72 1.13, -11.60 2.84 c -4.88 1.71, -7.83 3.00, -12.82 5.71 c -4.99 2.71, -7.76 4.54, -12.11 7.85 c -4.36 3.30, -6.55 5.22, -9.66 8.66 c -3.11 3.45, -4.34 5.31, -5.91 8.57 c -1.57 3.26, -1.93 4.85, -1.93 7.71 c 0.00 2.87, 0.45 4.25, 1.95 6.62 c 1.50 2.36, 2.66 3.47, 5.53 5.20 c 2.87 1.74, 4.44 2.52, 8.84 3.48 c 4.39 0.96, 7.90 1.07, 13.12 1.31 c 5.22 0.24, 8.42 0.07, 12.97 -0.12 c 4.54 -0.18, 7.80 -0.64, 9.75 -0.80 m 120.35 -50.00 c -0.27 -0.40, -0.41 -1.17, -1.35 -2.01 c -0.94 -0.84, -1.54 -1.55, -3.36 -2.18 c -1.82 -0.63, -2.96 -1.11, -5.76 -0.98 c -2.80 0.13, -4.55 0.45, -8.25 1.63 c -3.70 1.18, -6.01 2.06, -10.26 4.26 c -4.25 2.20, -6.75 3.71, -10.98 6.74 c -4.22 3.03, -6.52 4.97, -10.14 8.43 c -3.62 3.45, -5.51 5.37, -7.96 8.84 c -2.45 3.47, -3.42 5.34, -4.30 8.53 c -0.89 3.19, -0.92 4.77, -0.13 7.40 c 0.80 2.63, 1.65 3.86, 4.11 5.77 c 2.45 1.91, 4.21 2.74, 8.17 3.78 c 3.96 1.04, 6.49 1.37, 11.62 1.43 c 5.14 0.06, 7.95 -0.11, 14.05 -1.12 c 6.10 -1.01, 10.26 -2.22, 16.44 -3.92 c 6.18 -1.70, 9.60 -2.91, 14.46 -4.59 c 4.86 -1.68, 7.88 -3.05, 9.85 -3.81 m 87.51 -101.13 c -0.55 0.70, -1.24 1.34, -2.74 3.50 c -1.50 2.16, -2.50 3.59, -4.78 7.31 c -2.27 3.73, -3.77 6.24, -6.60 11.33 c -2.82 5.09, -4.39 8.23, -7.51 14.11 c -3.12 5.88, -4.92 9.21, -8.08 15.31 c -3.16 6.10, -4.86 9.40, -7.71 15.18 c -2.85 5.78, -4.25 8.72, -6.54 13.70 c -2.29 4.98, -3.34 7.29, -4.90 11.19 c -1.56 3.90, -2.08 5.63, -2.91 8.32 c -0.83 2.70, -0.96 3.63, -1.24 5.16 c -0.29 1.53, -0.15 2.00, -0.18 2.50 m -3.59 -45.20 c 0.80 -0.10, 1.71 -0.21, 3.98 -0.51 c 2.28 -0.31, 3.78 -0.54, 7.40 -1.02 c 3.62 -0.48, 5.84 -0.76, 10.69 -1.36 c 4.85 -0.59, 8.30 -0.97, 13.55 -1.61 c 5.25 -0.65, 8.36 -1.06, 12.70 -1.61 c 4.34 -0.55, 7.20 -0.90, 9.00 -1.13 m 100.93 -7.03 c -1.00 -0.25, -2.33 -0.87, -4.99 -1.23 c -2.66 -0.37, -4.48 -0.65, -8.30 -0.60 c -3.83 0.05, -6.45 0.11, -10.83 0.87 c -4.38 0.76, -6.80 1.59, -11.08 2.93 c -4.28 1.34, -6.64 2.18, -10.31 3.78 c -3.67 1.60, -5.46 2.53, -8.02 4.23 c -2.57 1.70, -3.58 2.55, -4.81 4.28 c -1.22 1.72, -1.45 2.60, -1.31 4.34 c 0.14 1.74, 0.63 2.61, 2.01 4.36 c 1.38 1.75, 2.51 2.64, 4.89 4.37 c 2.38 1.73, 4.01 2.59, 7.02 4.28 c 3.01 1.68, 4.89 2.53, 8.03 4.14 c 3.14 1.61, 4.93 2.37, 7.68 3.91 c 2.75 1.54, 4.16 2.32, 6.06 3.78 c 1.90 1.46, 2.66 2.15, 3.42 3.50 c 0.76 1.35, 0.88 2.00, 0.37 3.27 c -0.50 1.27, -1.12 1.89, -2.89 3.08 c -1.76 1.19, -3.02 1.83, -5.93 2.89 c -2.91 1.07, -4.78 1.58, -8.62 2.43 c -3.84 0.85, -6.14 1.25, -10.60 1.82 c -4.45 0.58, -7.01 0.78, -11.68 1.05 c -4.67 0.27, -7.16 0.31, -11.65 0.29 c -4.49 -0.02, -6.81 -0.16, -10.78 -0.38 c -3.97 -0.21, -5.93 -0.33, -9.09 -0.68 c -3.15 -0.35, -4.59 -0.68, -6.68 -1.05 c -2.08 -0.37, -2.99 -0.65, -3.74 -0.82" style="stroke: rgb(0, 0, 0); stroke-width: 4.11; fill: none; stroke-linecap: round;"/></svg>